<svg width="109" height="34" viewBox="0 0 109 34" fill="none" xmlns="http://www.w3.org/2000/svg">
<rect width="109" height="34" rx="10" fill="black"/>
<path d="M11 9.21739C11 7.99276 11.9928 7 13.2174 7H18C23.5228 7 28 11.4772 28 17C28 22.5228 23.5228 27 18 27H13.2174C11.9928 27 11 26.0072 11 24.7826V9.21739Z" fill="#EBD000"/>
<path d="M13.2174 6.5C11.7166 6.5 10.5 7.71662 10.5 9.21739V24.7826C10.5 26.2834 11.7166 27.5 13.2174 27.5H18C23.799 27.5 28.5 22.799 28.5 17C28.5 11.201 23.799 6.5 18 6.5H13.2174Z" stroke="black" stroke-opacity="0.2"/>
<path d="M33.5 6.5C28.5294 6.5 24.5 10.5294 24.5 15.5V18.5C24.5 23.4706 28.5294 27.5 33.5 27.5C38.4706 27.5 42.5 23.4706 42.5 18.5V15.5C42.5 10.5294 38.4706 6.5 33.5 6.5Z" fill="#EBD000" stroke="black"/>
<path d="M65.5 6.5C60.5294 6.5 56.5 10.5294 56.5 15.5V18.5C56.5 23.4706 60.5294 27.5 65.5 27.5C70.4706 27.5 74.5 23.4706 74.5 18.5V15.5C74.5 10.5294 70.4706 6.5 65.5 6.5Z" fill="white" stroke="black"/>
<path d="M63 17C63 15.3431 64.3431 14 66 14C67.6569 14 69 15.3431 69 17C69 18.6569 67.6569 20 66 20C64.3431 20 63 18.6569 63 17Z" fill="black"/>
<path d="M31 17C31 15.3431 32.3431 14 34 14C35.6569 14 37 15.3431 37 17C37 18.6569 35.6569 20 34 20C32.3431 20 31 18.6569 31 17Z" fill="black"/>
<path d="M54 6.5H53.5V7V26.6364C53.5 27.1133 53.8867 27.5 54.3636 27.5C56.6481 27.5 58.5 25.6481 58.5 23.3636V7V6.5H58H54Z" fill="white" stroke="black"/>
<path d="M58 6.5H57.5V7V11V11.5H58H66H66.5V11C66.5 8.51472 64.4853 6.5 62 6.5H58Z" fill="white" stroke="black"/>
<path d="M46 6.5H45.5V7C45.5 9.48528 47.5147 11.5 50 11.5H54H54.5V11V7V6.5H54H46Z" fill="white" stroke="black"/>
<path d="M16 14.7826C16 14.3504 16.3504 14 16.7826 14H19C20.6569 14 22 15.3431 22 17C22 18.6569 20.6569 20 19 20H16.7826C16.3504 20 16 19.6496 16 19.2174V14.7826Z" fill="black"/>
<path d="M75 9C75 7.89543 75.8954 7 77 7C78.1046 7 79 7.89543 79 9V27C76.7909 27 75 25.2091 75 23V9Z" fill="white"/>
<path d="M83 9C83 7.89543 83.8954 7 85 7C86.1046 7 87 7.89543 87 9V23C87 25.2091 85.2091 27 83 27V9Z" fill="white"/>
<path d="M78 23H87C87 25.2091 85.2091 27 83 27H78.8182C78.3663 27 78 26.6337 78 26.1818V23Z" fill="white"/>
<path d="M89 10.2C89 8.43269 90.4327 7 92.2 7C92.6418 7 93 7.35817 93 7.8V23C93 25.2091 91.2091 27 89 27V10.2Z" fill="white"/>
<path d="M90.6172 14.596C89.9113 12.5587 90.4996 10.2188 92.3418 9.09839C93.9643 8.11155 95.4585 7.58649 97.1998 7.36829C99.349 7.09898 101.247 8.62045 101.956 10.667C95.4959 9.78314 94.1242 11.9656 90.6172 14.596Z" fill="white"/>
</svg>
