<svg width="109" height="34" viewBox="0 0 109 34" fill="none" xmlns="http://www.w3.org/2000/svg">
<rect width="109" height="34" rx="10" fill="black"/>
<path d="M7.66 24V10H14.02C15.54 10 16.88 10.2933 18.04 10.88C19.2 11.4533 20.1067 12.26 20.76 13.3C21.4133 14.34 21.74 15.5733 21.74 17C21.74 18.4133 21.4133 19.6467 20.76 20.7C20.1067 21.74 19.2 22.5533 18.04 23.14C16.88 23.7133 15.54 24 14.02 24H7.66ZM10.9 21.34H13.86C14.7933 21.34 15.6 21.1667 16.28 20.82C16.9733 20.46 17.5067 19.9533 17.88 19.3C18.2667 18.6467 18.46 17.88 18.46 17C18.46 16.1067 18.2667 15.34 17.88 14.7C17.5067 14.0467 16.9733 13.5467 16.28 13.2C15.6 12.84 14.7933 12.66 13.86 12.66H10.9V21.34ZM30.9834 24.24C29.8768 24.24 28.8501 24.06 27.9034 23.7C26.9701 23.34 26.1568 22.8333 25.4634 22.18C24.7834 21.5267 24.2501 20.76 23.8634 19.88C23.4901 19 23.3034 18.04 23.3034 17C23.3034 15.96 23.4901 15 23.8634 14.12C24.2501 13.24 24.7901 12.4733 25.4834 11.82C26.1768 11.1667 26.9901 10.66 27.9234 10.3C28.8568 9.94 29.8701 9.76 30.9634 9.76C32.0701 9.76 33.0834 9.94 34.0034 10.3C34.9368 10.66 35.7434 11.1667 36.4234 11.82C37.1168 12.4733 37.6568 13.24 38.0434 14.12C38.4301 14.9867 38.6234 15.9467 38.6234 17C38.6234 18.04 38.4301 19.0067 38.0434 19.9C37.6568 20.78 37.1168 21.5467 36.4234 22.2C35.7434 22.84 34.9368 23.34 34.0034 23.7C33.0834 24.06 32.0768 24.24 30.9834 24.24ZM30.9634 21.48C31.5901 21.48 32.1634 21.3733 32.6834 21.16C33.2168 20.9467 33.6834 20.64 34.0834 20.24C34.4834 19.84 34.7901 19.3667 35.0034 18.82C35.2301 18.2733 35.3434 17.6667 35.3434 17C35.3434 16.3333 35.2301 15.7267 35.0034 15.18C34.7901 14.6333 34.4834 14.16 34.0834 13.76C33.6968 13.36 33.2368 13.0533 32.7034 12.84C32.1701 12.6267 31.5901 12.52 30.9634 12.52C30.3368 12.52 29.7568 12.6267 29.2234 12.84C28.7034 13.0533 28.2434 13.36 27.8434 13.76C27.4434 14.16 27.1301 14.6333 26.9034 15.18C26.6901 15.7267 26.5834 16.3333 26.5834 17C26.5834 17.6533 26.6901 18.26 26.9034 18.82C27.1301 19.3667 27.4368 19.84 27.8234 20.24C28.2234 20.64 28.6901 20.9467 29.2234 21.16C29.7568 21.3733 30.3368 21.48 30.9634 21.48Z" fill="#EBD000"/>
<path d="M47.56 24V12.64H43.08V10H55.28V12.64H50.8V24H47.56ZM63.628 24.24C62.5213 24.24 61.4946 24.06 60.548 23.7C59.6146 23.34 58.8013 22.8333 58.108 22.18C57.428 21.5267 56.8946 20.76 56.508 19.88C56.1346 19 55.948 18.04 55.948 17C55.948 15.96 56.1346 15 56.508 14.12C56.8946 13.24 57.4346 12.4733 58.128 11.82C58.8213 11.1667 59.6346 10.66 60.568 10.3C61.5013 9.94 62.5146 9.76 63.608 9.76C64.7146 9.76 65.728 9.94 66.648 10.3C67.5813 10.66 68.388 11.1667 69.068 11.82C69.7613 12.4733 70.3013 13.24 70.688 14.12C71.0746 14.9867 71.268 15.9467 71.268 17C71.268 18.04 71.0746 19.0067 70.688 19.9C70.3013 20.78 69.7613 21.5467 69.068 22.2C68.388 22.84 67.5813 23.34 66.648 23.7C65.728 24.06 64.7213 24.24 63.628 24.24ZM63.608 21.48C64.2346 21.48 64.808 21.3733 65.328 21.16C65.8613 20.9467 66.328 20.64 66.728 20.24C67.128 19.84 67.4346 19.3667 67.648 18.82C67.8746 18.2733 67.988 17.6667 67.988 17C67.988 16.3333 67.8746 15.7267 67.648 15.18C67.4346 14.6333 67.128 14.16 66.728 13.76C66.3413 13.36 65.8813 13.0533 65.348 12.84C64.8146 12.6267 64.2346 12.52 63.608 12.52C62.9813 12.52 62.4013 12.6267 61.868 12.84C61.348 13.0533 60.888 13.36 60.488 13.76C60.088 14.16 59.7746 14.6333 59.548 15.18C59.3346 15.7267 59.228 16.3333 59.228 17C59.228 17.6533 59.3346 18.26 59.548 18.82C59.7746 19.3667 60.0813 19.84 60.468 20.24C60.868 20.64 61.3346 20.9467 61.868 21.16C62.4013 21.3733 62.9813 21.48 63.608 21.48ZM79.923 24.24C77.9363 24.24 76.383 23.6867 75.263 22.58C74.143 21.4733 73.583 19.8933 73.583 17.84V10H76.823V17.72C76.823 19.0533 77.0963 20.0133 77.643 20.6C78.1896 21.1867 78.9563 21.48 79.943 21.48C80.9296 21.48 81.6963 21.1867 82.243 20.6C82.7896 20.0133 83.063 19.0533 83.063 17.72V10H86.263V17.84C86.263 19.8933 85.703 21.4733 84.583 22.58C83.463 23.6867 81.9096 24.24 79.923 24.24ZM89.4647 24V10H95.5247C96.778 10 97.858 10.2067 98.7647 10.62C99.6714 11.02 100.371 11.6 100.865 12.36C101.358 13.12 101.605 14.0267 101.605 15.08C101.605 16.12 101.358 17.02 100.865 17.78C100.371 18.5267 99.6714 19.1 98.7647 19.5C97.858 19.9 96.778 20.1 95.5247 20.1H91.2647L92.7047 18.68V24H89.4647ZM98.3647 24L94.8647 18.92H98.3247L101.865 24H98.3647ZM92.7047 19.04L91.2647 17.52H95.3447C96.3447 17.52 97.0914 17.3067 97.5847 16.88C98.078 16.44 98.3247 15.84 98.3247 15.08C98.3247 14.3067 98.078 13.7067 97.5847 13.28C97.0914 12.8533 96.3447 12.64 95.3447 12.64H91.2647L92.7047 11.1V19.04Z" fill="white"/>
</svg>
